<svg xmlns="http://www.w3.org/2000/svg" viewBox="0 0 174.96 181.64"><defs><style>.cls-1{fill:none;stroke:#69675e;stroke-miterlimit:10;stroke-width:2px;}.cls-2{fill:#39a6de;}.cls-3{fill:#fff;}</style></defs><g id="Calque_2" data-name="Calque 2"><g id="Calque_1-2" data-name="Calque 1"><path class="cls-1" d="M174,95.07A85.57,85.57,0,1,1,88.4,9.51,85.57,85.57,0,0,1,174,95.07"/><path class="cls-2" d="M166.37,83.18A83.19,83.19,0,1,1,83.18,0a83.18,83.18,0,0,1,83.19,83.18"/><path class="cls-3" d="M76,134.23a7.77,7.77,0,0,1-4.15-2.39,2.57,2.57,0,0,1-.47-.64,18.72,18.72,0,0,0-1.2-3.11c-.56-.91-1.62-1.5-2.18-2.4a4.89,4.89,0,0,1-.58-2.46c0-4.22,0-8.43,0-12.65a1.47,1.47,0,0,0-.72-1.46,4.8,4.8,0,0,1-2.2-3.73c-.51-5.73-2.74-10.81-5.68-15.65-1.85-3.06-3.92-6-5.48-9.23C45,63.26,52.3,42.67,69.76,35.18c13-5.56,25-3.4,35.79,5.73.94.79,1.08,1.71.45,2.41s-1.49.65-2.44-.19a30.06,30.06,0,0,0-21.3-7.86A30.42,30.42,0,0,0,53.32,60.5,32,32,0,0,0,57.9,82.7c2.38,3.9,4.7,7.85,6.81,11.89a28,28,0,0,1,2.74,10.12,2.37,2.37,0,0,0,2.67,2.44H96.3A2.31,2.31,0,0,0,98.91,105c.55-6.12,2.89-11.59,6.07-16.76,1.22-2,2.55-3.89,3.7-5.9,6.58-11.51,6.66-22.91-.68-34.15-.47-.72-.8-1.4-.2-2.18a1.48,1.48,0,0,1,2.5.25,31.57,31.57,0,0,1,5.13,11A34.38,34.38,0,0,1,111.17,84c-2.31,3.86-4.63,7.73-6.73,11.71a25.4,25.4,0,0,0-2.53,9.36,5.65,5.65,0,0,1-2.36,4.19,1.52,1.52,0,0,0-.56,1.1c0,4.21-.06,8.43,0,12.64a4.6,4.6,0,0,1-2.4,4.47.94.94,0,0,0-.43.57,6.85,6.85,0,0,1-5.61,6.07,1,1,0,0,0-.17.1ZM70.5,110.17v2.69a.56.56,0,0,0,.17.06l2.78,0c1.16,0,1.82.58,1.8,1.53s-.63,1.44-1.76,1.45h-3v2.68H95.9v-2.68H80.51a6.51,6.51,0,0,1-1,0,1.26,1.26,0,0,1-1.2-1.35,2.66,2.66,0,0,1,1-1.45c.23-.21.75-.15,1.15-.15,4.81,0,9.62,0,14.43,0H95.9v-2.78Zm-.08,11.55v.8c0,2.25.14,2.42,2.43,2.42h20.3c2.78,0,2.93-.16,2.81-2.92a1.1,1.1,0,0,0-.09-.3ZM93.11,128H73.3a3.79,3.79,0,0,0,3.91,3.23H89.15a3.85,3.85,0,0,0,4-3.23"/><path class="cls-3" d="M100.25,57.27a4,4,0,0,1-1.56,2.95,1.05,1.05,0,0,0-.28,1.54,11.49,11.49,0,0,1,.92,2.2,1,1,0,0,0,1.15.8c3,0,4.2,1.25,4.2,4.26,0,.36,0,.73,0,1.09a3.46,3.46,0,0,1-3.74,3.72c-1,0-1.52.23-1.63,1.21a.62.62,0,0,1-.07.19c-.85,1.51-1.24,2.83.37,4.3,1,.94.72,2.8-.26,3.93a18.23,18.23,0,0,1-2,2,3.33,3.33,0,0,1-4.74-.3c-.64-.65-1.19-.88-2-.3a1.48,1.48,0,0,1-.54.25c-1.52.44-2.55,1-2.62,3s-1.69,2.69-4.69,2.69c-2.32,0-3.95-.86-4-2.69s-1.06-2.44-2.52-2.84a.56.56,0,0,1-.18-.07,1.88,1.88,0,0,0-2.81.29,3.19,3.19,0,0,1-4.43-.12c-.54-.48-1.05-1-1.55-1.54a3.37,3.37,0,0,1,0-5,1.28,1.28,0,0,0,.3-1.79,14.55,14.55,0,0,1-1-2.39.93.93,0,0,0-1-.75c-2.81-.1-4-1.34-4-4.19,0-.47,0-.93,0-1.4a3.4,3.4,0,0,1,3.55-3.48c.92,0,1.46-.21,1.6-1.15a1.52,1.52,0,0,1,.18-.46c.86-1.43,1.25-2.67-.27-4.11-1.06-1-.69-2.86.33-4,.49-.55,1-1,1.54-1.56a3.36,3.36,0,0,1,5.11,0c.7.72,1.29.94,2.12.34a1,1,0,0,1,.36-.16c1.55-.4,2.63-1,2.55-3C78.72,49,80.32,47.91,82,47.83c.73,0,1.46,0,2.19,0a3.39,3.39,0,0,1,3.55,3.59c0,1.11.24,1.77,1.38,1.94a.14.14,0,0,1,.09,0c1.46.9,2.71,1.17,4.08-.39a2.66,2.66,0,0,1,3.59-.16,16.12,16.12,0,0,1,2.81,2.79,5,5,0,0,1,.58,1.65m-3,.06c-.33-.38-.62-.73-.93-1-1.14-1.14-1-1.32-2.3,0a3.44,3.44,0,0,1-4.28.68c-.75-.35-1.5-.69-2.28-1a3.49,3.49,0,0,1-2.7-3.79c0-1.36,0-1.36-1.4-1.36h-.3c-1.42,0-1.42,0-1.45,1.41A3.47,3.47,0,0,1,79,55.83c-.84.29-1.67.64-2.48,1a3.44,3.44,0,0,1-4.2-.66c-1.1-1-1.1-1-2.15,0a3.7,3.7,0,0,1-.28.28c-.74.54-.71,1,0,1.66,1.46,1.43,1.61,2.76.71,4.6a24.87,24.87,0,0,0-1,2.37,3.42,3.42,0,0,1-3.66,2.59c-.95,0-1.27.33-1.16,1.22a2.66,2.66,0,0,1,0,.69c-.13,1,.26,1.28,1.23,1.27a3.39,3.39,0,0,1,3.51,2.53c.34,1,.75,1.9,1.16,2.84a3.32,3.32,0,0,1-.57,4c-1.21,1.24-.84,1.18.12,2.17a2.47,2.47,0,0,1,.28.28c.52.69,1,.68,1.59,0a3.39,3.39,0,0,1,4.43-.7,12.1,12.1,0,0,0,2,.85c2.14.58,3.29,1.85,3.21,4.15,0,.25.45.61.76.75a2.45,2.45,0,0,0,1,0c1.34,0,1.34,0,1.37-1.29A3.45,3.45,0,0,1,87.32,83a20.89,20.89,0,0,0,2-.83c2.44-1.17,3.24-1.09,5.25.73.44.41.77.44,1.16,0,.18-.2.37-.38.56-.57,1-1,1-1,0-2.07A3.44,3.44,0,0,1,95.67,76c.39-.87.74-1.77,1.06-2.67A3.31,3.31,0,0,1,99,71.06a6.8,6.8,0,0,1,1.86-.18c.64,0,.93-.26.89-.9a5.86,5.86,0,0,1,0-.59c0-1.63,0-1.63-1.59-1.66a3.43,3.43,0,0,1-3.46-2.46c-.27-.71-.53-1.43-.86-2.12-1-2.2-.88-3.31.84-5.08.2-.21.38-.44.64-.74"/><path class="cls-3" d="M83.21,58.39A10.9,10.9,0,1,1,72.29,69.28,11,11,0,0,1,83.21,58.39m0,3a7.92,7.92,0,1,0,7.9,7.95,8,8,0,0,0-7.9-7.95"/></g></g></svg>