<svg xmlns="http://www.w3.org/2000/svg" viewBox="0 0 182.47 173.13"><defs><style>.cls-1{fill:none;stroke:#69675e;stroke-miterlimit:10;stroke-width:2px;}.cls-2{fill:#39a6de;}.cls-3{fill:#fff;}</style></defs><g id="Calque_2" data-name="Calque 2"><g id="Calque_1-2" data-name="Calque 1"><circle class="cls-1" cx="86.57" cy="86.57" r="85.57"/><path class="cls-2" d="M182.47,89.63A83.19,83.19,0,1,1,99.29,6.44a83.18,83.18,0,0,1,83.18,83.19"/><path class="cls-3" d="M97,137.65a6.34,6.34,0,0,1-3.7-2.38c-.48-.74-.82-1.59-1.28-2.49-3.77.63-6.39-.86-7.56-4.8a6.29,6.29,0,0,1-4.85-.65,6,6,0,0,1-2.76-4.09c-2.77.58-5.12,0-6.71-2.41s-1.23-4.91.47-7.33l-5.47-3.08c-.65,1.64-1.27,3.24-1.9,4.83-.55,1.38-1.09,1.64-2.45,1.16q-4.14-1.45-8.28-3c-1.11-.4-1.51-1.37-.92-2.19a1.41,1.41,0,0,1,1.82-.46l7.51,2.65c4.15-10.62,8.3-21.21,12.48-31.9-.3-.13-.56-.27-.84-.38L52.93,73.32a7.59,7.59,0,0,1-.78-.33,1.41,1.41,0,0,1-.71-1.81,1.38,1.38,0,0,1,1.8-.74c1.23.45,2.44.94,3.66,1.43L74.8,79c2,.81,2.14,1.11,1.38,3.15-.05.14-.09.29-.16.51,2.33.42,4.63.84,6.94,1.22a1.66,1.66,0,0,0,.87-.27c3.67-1.66,7.32-3.35,11-5a3.92,3.92,0,0,1,1.79-.31c4.74.37,9.47.79,14.2,1.16a7,7,0,0,0,1.65-.34L110.28,77c-1-1-1-1.66,0-2.67l34.13-32c1.2-1.12,2.07-.92,2.8.62v.18a8.26,8.26,0,0,1-1,1.33q-13.77,12.93-27.54,25.83L113,75.7l26.13,25.78,5.26-4.92c1.31-1.22,2.18-1,2.9.58v.19a12.05,12.05,0,0,1-1.08,1.37c-1.87,1.79-3.78,3.55-5.67,5.32-1.21,1.12-1.71,1.11-2.91-.07l-2.54-2.5c-1.11,1.17-2.14,2.24-3.22,3.36,3,1.69,4.49,4.06,3.46,7.36s-3.57,4.45-6.94,4.1a6,6,0,0,1-2.17,4.82,6.18,6.18,0,0,1-5.13,1.26,5.84,5.84,0,0,1-2.1,4.8,6.13,6.13,0,0,1-5.13,1.29,5.93,5.93,0,0,1-3.37,5.61,6.11,6.11,0,0,1-6.5-.78,7.24,7.24,0,0,1-4.9,4.38ZM114.29,81a9,9,0,0,0-.76.65,2.68,2.68,0,0,1-2.44.8c-4.73-.46-9.46-.83-14.2-1.21a2.22,2.22,0,0,0-1.09.12q-6.43,2.89-12.86,5.85a2.87,2.87,0,0,0-1.7,2.52,3,3,0,0,0,4.37,3c2.72-1.18,5.4-2.45,8.11-3.66a1.41,1.41,0,0,1,1.93.59A1.35,1.35,0,0,1,95,91.53c-2.92,1.35-5.8,2.8-8.8,4a5.75,5.75,0,0,1-7.72-5.59,19.49,19.49,0,0,1,.9-3.74l-4.42-.77-8.76,22.39,5.9,3.31.59-.93c1.76-2.84,3.49-5.7,5.28-8.52A5.85,5.85,0,0,1,84.11,99a5.74,5.74,0,0,1,4.54,4.68,19.27,19.27,0,0,1,.13,2.43,6.07,6.07,0,0,1,4.76,2.2,6.43,6.43,0,0,1,1.23,5.11,6,6,0,0,1,4.86,2.18,6.34,6.34,0,0,1,1.23,5.1,5.79,5.79,0,0,1,5.67,3.55c1,2.37.41,4.57-1,6.61.25.17.39.28.55.38a3.1,3.1,0,1,0,3.29-5.24c-.52-.34-1.07-.64-1.59-1a1.42,1.42,0,1,1,1.48-2.39l4,2.45a3.17,3.17,0,0,0,4.54-.8c1-1.54.45-3.39-1.3-4.47-1.57-1-3.15-1.93-4.71-2.9A1.42,1.42,0,0,1,111,115a1.4,1.4,0,0,1,2.21-.5c2.43,1.47,4.84,3,7.27,4.45a3.11,3.11,0,1,0,3.26-5.25l-6.31-3.88c-.69-.43-1.39-.83-2.06-1.3a1.16,1.16,0,0,1-.44-1.63,2.64,2.64,0,0,1,1.4-.84c.28-.07.69.23,1,.42,3.43,2.1,6.86,4.22,10.3,6.31a4.71,4.71,0,0,0,1.35.62,3.07,3.07,0,0,0,2.29-5.62c-3.23-2-6.49-4-9.73-6a4.6,4.6,0,0,1-.78-.52A1.38,1.38,0,0,1,122.25,99c.28.13.55.3.82.46l6.31,3.88,3.68-3.85L114.29,81M75.05,120.64A3.15,3.15,0,0,0,77.8,119q3.78-6.14,7.57-12.28a3.18,3.18,0,0,0-.85-4.53,3.12,3.12,0,0,0-4.41,1.28q-2.17,3.49-4.33,7c-1.13,1.83-2.3,3.65-3.38,5.51a3.06,3.06,0,0,0,2.65,4.67m7.56,4.75a3.13,3.13,0,0,0,2.84-1.68c1.37-2.2,2.72-4.4,4.08-6.61.71-1.14,1.45-2.27,2.1-3.44a3.15,3.15,0,0,0-1.1-4.26,3.08,3.08,0,0,0-4.18,1.08c-.43.65-.82,1.32-1.23,2-1.69,2.74-3.41,5.45-5.05,8.22a3.08,3.08,0,0,0,2.54,4.7m15.65-5.91a3.3,3.3,0,0,0-2.33-3.08,3,3,0,0,0-3.48,1.36c-1.55,2.46-3.07,4.93-4.59,7.41a3.15,3.15,0,0,0,.9,4.5,3.09,3.09,0,0,0,4.35-1.23c1.49-2.38,3-4.76,4.41-7.17a12.25,12.25,0,0,0,.74-1.79m6.06,7.25a3.28,3.28,0,0,0-2.23-3A3.06,3.06,0,0,0,98.57,125c-1.06,1.65-2.09,3.33-3.1,5a3.09,3.09,0,1,0,5.26,3.23c1-1.58,2-3.16,2.94-4.78a10.15,10.15,0,0,0,.65-1.72"/><path class="cls-3" d="M99.45,86.83c1.84.52,4,.43,5.88,1.67,3.66,2.39,7.43,4.61,11.15,6.89.16.1.33.19.48.3a1.41,1.41,0,1,1-1.5,2.37c-2.11-1.28-4.21-2.58-6.31-3.87-1-.59-2-1.13-2.87-1.78a14.09,14.09,0,0,0-7.12-2.79,1.39,1.39,0,0,1-1.37-1.49,1.5,1.5,0,0,1,1.66-1.3"/></g></g></svg>