<svg xmlns="http://www.w3.org/2000/svg" viewBox="0 0 179.38 177.71"><defs><style>.cls-1{fill:none;stroke:#69675e;stroke-miterlimit:10;stroke-width:2px;}.cls-2{fill:#39a6de;}.cls-3{fill:#fff;}</style></defs><g id="Calque_2" data-name="Calque 2"><g id="Calque_1-2" data-name="Calque 1"><path class="cls-1" d="M178.38,86.56A85.57,85.57,0,1,1,92.82,1a85.57,85.57,0,0,1,85.56,85.56"/><path class="cls-2" d="M166.37,94.53A83.19,83.19,0,1,1,83.18,11.34a83.18,83.18,0,0,1,83.19,83.19"/><path class="cls-3" d="M105.1,112h0a1.63,1.63,0,0,1-1.39-.8L88.13,85.06,88,84.84a20.36,20.36,0,0,1,17.47-30.95h0A20.37,20.37,0,0,1,123,84.83a1.23,1.23,0,0,1-.14.31L106.49,111.2a1.65,1.65,0,0,1-1.39.77m-14-28.33,14,23.55,14.71-23.5a1.55,1.55,0,0,1,.14-.29,17,17,0,0,0,2.64-9.08h0a17.14,17.14,0,0,0-17.12-17.16h0A17.1,17.1,0,0,0,91,83.35a1.59,1.59,0,0,1,.15.29"/><path class="cls-3" d="M105.5,81.93h0a8.64,8.64,0,1,1,0-17.27h0a8.66,8.66,0,0,1,8.63,8.65,8.64,8.64,0,0,1-8.63,8.62m0-14a5.37,5.37,0,1,0,0,10.73h0a5.36,5.36,0,0,0,5.37-5.35,5.39,5.39,0,0,0-5.37-5.38h0m7,5.38h0Z"/><path class="cls-3" d="M132.23,135.17H34.14a1.64,1.64,0,0,1-1.51-2.28l17.85-41.7a1.63,1.63,0,0,1,1.5-1h42.1a1.64,1.64,0,1,1,0,3.27h-41L36.62,131.89h93.13L113.81,94.66a1.64,1.64,0,0,1,3-1.28l16.91,39.51a1.62,1.62,0,0,1-.13,1.54,1.66,1.66,0,0,1-1.37.74"/><path class="cls-3" d="M105.3,134.87a1.64,1.64,0,0,1-1.63-1.45c0-.08-1-8.12-12.33-10-1-.17-2.73-.34-4.66-.52-10.68-1-20.42-2.37-22.29-7.36-1.22-3.21.56-5.67,2-7.64,1.55-2.15,2.07-3.09,1.27-4.45-.5-.85-2.1-1.55-3.65-2.23-3-1.32-7.2-3.13-7.22-8.09a1.64,1.64,0,0,1,1.63-1.64h0a1.65,1.65,0,0,1,1.64,1.63c0,2.63,2,3.69,5.25,5.1,2,.89,4.13,1.8,5.17,3.58,2,3.32,0,6-1.44,8s-2.14,3.07-1.58,4.57C68.77,117.84,81.08,119,87,119.6c2,.2,3.73.36,4.9.56,13.68,2.32,15,12.46,15,12.89a1.64,1.64,0,0,1-1.44,1.81h-.19"/></g></g></svg>