<svg xmlns="http://www.w3.org/2000/svg" viewBox="0 0 182.14 173.13"><defs><style>.cls-1{fill:none;stroke:#69675e;stroke-miterlimit:10;stroke-width:2px;}.cls-2{fill:#39a6de;}.cls-3{fill:#fff;}</style></defs><g id="Calque_2" data-name="Calque 2"><g id="Calque_1-2" data-name="Calque 1"><path class="cls-1" d="M95.57,1a85.57,85.57,0,0,1,85.57,85.57"/><path class="cls-1" d="M181.14,86.57A85.57,85.57,0,1,1,95.57,1"/><path class="cls-2" d="M83.18,3.44a83.19,83.19,0,0,1,83.19,83.19"/><path class="cls-2" d="M166.37,86.63A83.19,83.19,0,1,1,83.18,3.44"/><path class="cls-3" d="M132.31,111.19a4.88,4.88,0,0,0-.18.54,7.18,7.18,0,0,1-7.2,5.6q-13.92,0-27.83,0H95.82a59.34,59.34,0,0,0,2.06,6.73,6.08,6.08,0,0,0,5.84,3.81c3,0,6,0,8.92,0,1,0,1.63.48,1.7,1.31a1.41,1.41,0,0,1-1.25,1.54,6.18,6.18,0,0,1-.86,0h-58c-.23,0-.45,0-.68,0A1.43,1.43,0,0,1,52,129.32a1.39,1.39,0,0,1,1.48-1.42c2.21,0,4.42,0,6.62,0,.83,0,1.67,0,2.5,0a6.55,6.55,0,0,0,6.22-4.67c.54-1.83,1.06-3.68,1.58-5.52a1.6,1.6,0,0,0,0-.36H41.86c-4.8,0-7.8-3-7.8-7.76V50.27c0-4.79,3-7.78,7.78-7.78h82.61c4.16,0,6.6,1.86,7.74,5.88a1.51,1.51,0,0,0,.12.26Zm-49.15,3.26h41.35c3.22,0,4.92-1.7,4.92-4.89V50.27c0-3.21-1.7-4.9-4.92-4.9H41.91c-3.29,0-5,1.67-5,4.94V109.5c0,3.27,1.68,5,5,5H83.16m-13.7,13.37H97a11,11,0,0,1-2.67-5.38c-.37-1.42-.83-2.82-1.18-4.24-.17-.69-.47-.89-1.17-.89-5.73,0-11.45,0-17.17,0a1.38,1.38,0,0,0-1.63,1.19c-1,3.16-1.23,6.63-3.69,9.32"/><path class="cls-3" d="M123.61,51.17H42.69V73.35a8.19,8.19,0,0,1,0,.86,1.39,1.39,0,0,1-1.46,1.35,1.36,1.36,0,0,1-1.39-1.31,6.57,6.57,0,0,1,0-.77q0-11.55,0-23.12c0-1.7.4-2.11,2.06-2.11h82.61c1.66,0,2.07.42,2.07,2.11V103.7c0,1.7-.42,2.12-2.08,2.12H41.88c-1.63,0-2.06-.43-2.06-2q0-11.66,0-23.31c0-.19,0-.39,0-.58a1.44,1.44,0,1,1,2.87,0c0,.32,0,.64,0,1v22h80.92Z"/><path class="cls-3" d="M120.93,110.11a1.47,1.47,0,0,1-1.47,1.45,1.43,1.43,0,0,1,0-2.86,1.45,1.45,0,0,1,1.5,1.41"/><path class="cls-3" d="M126.68,110.1a1.46,1.46,0,0,1-1.45,1.46,1.43,1.43,0,0,1-.06-2.86,1.45,1.45,0,0,1,1.51,1.4"/></g></g></svg>