<svg xmlns="http://www.w3.org/2000/svg" viewBox="0 0 213.18 173.13"><defs><style>.cls-1{fill:#ebebeb;}.cls-2{fill:none;stroke:#69675e;stroke-miterlimit:10;stroke-width:2px;}.cls-3{fill:#39a6de;}.cls-4{fill:#fff;}</style></defs><g id="Calque_2" data-name="Calque 2"><g id="Calque_1-2" data-name="Calque 1"><polygon class="cls-1" points="70.03 25.99 70.03 25.99 69.88 26.3 70.03 25.99"/><polyline class="cls-1" points="213.19 68.62 69.8 28.48 213.19 68.62"/><polygon class="cls-1" points="69.8 28.48 69.8 28.48 95.15 99.94 69.8 28.48"/><polygon class="cls-1" points="68.47 25.84 68.93 25.92 67.54 22.1 67.15 25.44 68.47 25.84"/><path class="cls-2" d="M86.57,1a85.57,85.57,0,0,1,85.56,85.57"/><path class="cls-2" d="M86.57,172.13A85.57,85.57,0,1,1,86.57,1"/><path class="cls-2" d="M172.13,86.57a85.56,85.56,0,0,1-85.56,85.56"/><path class="cls-3" d="M104.73,4.53a83.19,83.19,0,0,1,83.18,83.19"/><path class="cls-3" d="M187.91,87.72A83.19,83.19,0,1,1,104.73,4.53"/><path class="cls-4" d="M116.6,74.45v2.32H100.8V74.32h10.44V64.71a4.91,4.91,0,0,0-1.12-3.61A5,5,0,0,0,106.49,60h-4.65V57.54h4.82a7.93,7.93,0,0,1,5.68,1.83,7.15,7.15,0,0,1,1.92,5.42v9.42Zm14.54-6.09,6.09,8.41h-3.38L125.28,65a4.09,4.09,0,0,0-1.75,3.76v8.06H120.6v-7a8.7,8.7,0,0,1,.84-4.08,5.5,5.5,0,0,1,2.63-2.42l-4.16-5.76h3.39l6,8.23,4.64-8.23h3.41Z"/><path class="cls-4" d="M150,40.76H88.71A1.74,1.74,0,0,0,87,42.5v25H59.51a1.74,1.74,0,0,0-1.74,1.74V118a1.74,1.74,0,0,0,1.74,1.74H74l13.66,14.44a1.69,1.69,0,0,0,1.26.54,1.77,1.77,0,0,0,.64-.12,1.74,1.74,0,0,0,1.1-1.61V119.69h33a1.74,1.74,0,0,0,1.74-1.74v-25H150a1.73,1.73,0,0,0,1.73-1.73V42.5A1.73,1.73,0,0,0,150,40.76M122,116.22H89A1.73,1.73,0,0,0,87.22,118v10.63L76,116.76a1.73,1.73,0,0,0-1.26-.54H61.24V71H87V91.2a1.73,1.73,0,0,0,1.74,1.73H101v12.18a1.73,1.73,0,0,0,1.07,1.6,1.7,1.7,0,0,0,.67.13,1.74,1.74,0,0,0,1.21-.49l13.67-13.42H122Zm26.21-26.76h-31.3a1.72,1.72,0,0,0-1.21.5l-11.23,11V91.2a1.73,1.73,0,0,0-1.73-1.74H90.44V44.23h57.77V89.46Z"/><path class="cls-4" d="M96.89,108.49h-4l-.64-2.88-1.39-4-6.36-.05-5.67.05-1.44,3.74-.75,3.1h-4L82.93,81.86h4.6Zm-7.17-10.1L85.28,85.76H85L80.09,98.39l4.71,0Z"/></g></g></svg>