<svg xmlns="http://www.w3.org/2000/svg" viewBox="0 0 1413.53 546.06"><defs><style>.cls-1,.cls-3{fill:none;stroke:#d9d9d9;stroke-miterlimit:10;}.cls-2{fill:#fff;}.cls-3{stroke-width:3px;}.cls-4,.cls-5{fill:#37a6de;}.cls-5{font-size:20px;font-family:SourceSansPro-Bold, Source Sans Pro;font-weight:700;}.cls-6{letter-spacing:-0.01em;}.cls-7{letter-spacing:-0.01em;}.cls-8{letter-spacing:0em;}.cls-9{letter-spacing:-0.03em;}.cls-10{letter-spacing:0em;}.cls-11{letter-spacing:-0.01em;}.cls-12{letter-spacing:-0.01em;}.cls-13{letter-spacing:0em;}.cls-14{letter-spacing:-0.03em;}.cls-15{letter-spacing:0em;}.cls-16{letter-spacing:-0.01em;}.cls-17{letter-spacing:-0.01em;}.cls-18{letter-spacing:-0.02em;}</style></defs><g id="Calque_2" data-name="Calque 2"><g id="Calque_1-2" data-name="Calque 1"><path class="cls-1" d="M1232.73,84.68a171.11,171.11,0,0,1,0,342.21"/><line class="cls-1" x1="96.48" y1="425.82" x2="1148.33" y2="425.82"/><line class="cls-1" x1="168.36" y1="84.68" x2="1231.3" y2="84.68"/><path class="cls-2" d="M167.87,84.68A83.19,83.19,0,1,1,84.68,1.5a83.18,83.18,0,0,1,83.19,83.18"/><circle class="cls-3" cx="84.68" cy="84.68" r="83.18"/><path class="cls-4" d="M62.86,110.71a21.83,21.83,0,0,1,43.52,0ZM84.62,87.16a25.3,25.3,0,0,0-25.27,25.26,1.72,1.72,0,0,0,1.72,1.72h47.09a1.72,1.72,0,0,0,1.72-1.72A25.29,25.29,0,0,0,84.62,87.16"/><path class="cls-4" d="M84.21,58.66a11.4,11.4,0,1,1-11.4,11.4,11.41,11.41,0,0,1,11.4-11.4m0,26.23A14.83,14.83,0,1,0,69.37,70.06,14.85,14.85,0,0,0,84.21,84.89"/><path class="cls-4" d="M51,96.64a15.8,15.8,0,0,1,8,2.17,1.72,1.72,0,0,0,1.74-3,19.22,19.22,0,0,0-29,16.57,1.71,1.71,0,0,0,1.71,1.72H55.3a1.72,1.72,0,1,0,0-3.43H35.35A15.8,15.8,0,0,1,51,96.64"/><path class="cls-4" d="M50.73,71a8,8,0,1,1-8,8,8,8,0,0,1,8-8m0,19.5A11.47,11.47,0,1,0,39.27,79,11.48,11.48,0,0,0,50.73,90.46"/><path class="cls-4" d="M118.33,93.2a19.23,19.23,0,0,0-9.74,2.65,1.72,1.72,0,1,0,1.74,3,15.8,15.8,0,0,1,23.7,11.9h-20a1.72,1.72,0,1,0,0,3.43h21.77a1.72,1.72,0,0,0,1.71-1.72A19.24,19.24,0,0,0,118.33,93.2"/><path class="cls-4" d="M118.64,71a8,8,0,1,1-8,8,8,8,0,0,1,8-8m0,19.5A11.47,11.47,0,1,0,107.17,79a11.48,11.48,0,0,0,11.47,11.47"/><path class="cls-2" d="M537.63,84.68A83.19,83.19,0,1,1,454.44,1.5a83.19,83.19,0,0,1,83.19,83.18"/><circle class="cls-3" cx="454.44" cy="84.68" r="83.18"/><path class="cls-4" d="M484.66,123a3,3,0,0,1-3,3H427.15a3,3,0,0,1-3-3V53.91a3,3,0,0,1,3-3h15.41v5H430.73a1.42,1.42,0,0,0-1.38,1.38V119.4a1.42,1.42,0,0,0,1.38,1.38h47.33a1.41,1.41,0,0,0,1.37-1.38V57.31a1.41,1.41,0,0,0-1.37-1.38h-11v-5h14.58a3,3,0,0,1,3,3ZM464.3,43.27V63.18h-19V43.27ZM443.94,65.93h21.74a1.41,1.41,0,0,0,1.37-1.38v-6h9.63v59.34H432.11V58.68h10.45v5.87a1.35,1.35,0,0,0,1.38,1.38m37.69-17.79H467.05V41.9a1.41,1.41,0,0,0-1.37-1.38H443.94a1.41,1.41,0,0,0-1.38,1.38v6.24H427.15a5.74,5.74,0,0,0-5.77,5.77v69.16a5.75,5.75,0,0,0,5.77,5.78h54.58a5.75,5.75,0,0,0,5.77-5.78V53.91a5.88,5.88,0,0,0-5.87-5.77"/><path class="cls-4" d="M435.5,81.43a1.41,1.41,0,0,0,1.38,1.37h35.31a1.38,1.38,0,0,0,0-2.75H436.88a1.42,1.42,0,0,0-1.38,1.38"/><path class="cls-4" d="M472.19,89.68H436.88a1.38,1.38,0,1,0,0,2.75h35.31a1.38,1.38,0,0,0,0-2.75"/><path class="cls-4" d="M472.19,99.77H436.88a1.38,1.38,0,1,0,0,2.75h35.31a1.38,1.38,0,0,0,0-2.75"/><path class="cls-2" d="M908,84.68A83.19,83.19,0,1,1,824.83,1.5,83.19,83.19,0,0,1,908,84.68"/><circle class="cls-3" cx="824.83" cy="84.68" r="83.18"/><path class="cls-4" d="M826.61,131.16a39.12,39.12,0,1,1,0-78.23,20.49,20.49,0,0,1,2.47.1c.41,0,.82.1,1.23.1a39.1,39.1,0,0,1-3.7,78m-3.19-88.63h-4.23V38.21h14.93v4.32H829.9a1.58,1.58,0,0,0-1.54,1.54v5.87h-3.3V44.07a1.67,1.67,0,0,0-1.64-1.54M788.31,62.81,784.5,58.9l5.77-5.77,3.81,3.81-2.27,2.27-1.13,1.13Zm43.13-12.66V45.62h4.22a1.58,1.58,0,0,0,1.55-1.55V36.66a1.58,1.58,0,0,0-1.55-1.54h-18a1.58,1.58,0,0,0-1.54,1.54v7.41a1.58,1.58,0,0,0,1.54,1.55h4.22v4.53a42.48,42.48,0,0,0-25.53,12.56L794.59,61l2.88-2.89a1.49,1.49,0,0,0,0-2.16l-6-6a1.49,1.49,0,0,0-2.16,0l-8.13,7.93a1.49,1.49,0,0,0,0,2.16l6,6a1.54,1.54,0,0,0,1.13.41,1.56,1.56,0,0,0,1.14-.41l3-3,2,1.95A41.82,41.82,0,0,0,784.5,92a42.21,42.21,0,1,0,46.94-41.89"/><path class="cls-4" d="M828.77,92a2.17,2.17,0,1,1-4.33,0,2.17,2.17,0,0,1,4.33,0m-2.16,30.68a30.58,30.58,0,1,1,18.73-54.66L828.66,87.21a6.43,6.43,0,0,0-1.95-.42,5.25,5.25,0,0,0,0,10.5A5.18,5.18,0,0,0,831.86,92a5.5,5.5,0,0,0-.83-2.88l16.78-19.25A30.27,30.27,0,0,1,857.28,92a30.75,30.75,0,0,1-30.67,30.68m22.23-56-.31-.31a33.31,33.31,0,0,0-21.82-8,33.58,33.58,0,1,0,22.13,8.34"/><path class="cls-2" d="M908,425.82a83.19,83.19,0,1,1-83.19-83.18A83.2,83.2,0,0,1,908,425.82"/><circle class="cls-3" cx="824.83" cy="425.82" r="83.18"/><path class="cls-4" d="M863.15,443.14c0,1.59-1.89,2.94-4.13,2.94H790.64c-2.19,0-4.13-1.35-4.13-2.94v-50c0-1.58,1.9-2.87,4.13-2.87H859c2.19,0,4.13,1.35,4.13,2.93ZM859,387H790.64c-4.06,0-7.32,2.67-7.41,6.11v50.08c0,3.43,3.28,6.22,7.41,6.22h32v12.05H803.48a1.64,1.64,0,0,0-1.16.48,1.63,1.63,0,0,0-.48,1.16,1.64,1.64,0,0,0,1.64,1.64h42.7a1.63,1.63,0,0,0,1.16-.48,1.64,1.64,0,0,0,.48-1.16,1.64,1.64,0,0,0-1.64-1.64H825.93V449.36H859c4.13,0,7.42-2.79,7.42-6.22v-50c0-3.42-3.29-6.22-7.42-6.22"/><path class="cls-4" d="M830.6,408.45a1.62,1.62,0,0,0-1.24-.1,1.69,1.69,0,0,0-1,.81l-8.84,17.21a1.65,1.65,0,0,0-.18.62,1.68,1.68,0,0,0,.07.63,1.64,1.64,0,0,0,.32.56,1.5,1.5,0,0,0,.5.4,1.65,1.65,0,0,0,.61.18,1.74,1.74,0,0,0,.64-.08,1.47,1.47,0,0,0,.56-.31,1.61,1.61,0,0,0,.4-.5l8.82-17.24a1.67,1.67,0,0,0,.09-1.24,1.62,1.62,0,0,0-.8-.94"/><path class="cls-4" d="M841.1,407.84a1.62,1.62,0,0,0-1.15-.44,1.64,1.64,0,0,0-1.61,1.61,1.62,1.62,0,0,0,.44,1.15l8.19,8.18-8.19,8.18a1.66,1.66,0,0,0-.38.53,1.61,1.61,0,0,0-.14.64,1.47,1.47,0,0,0,.12.65,1.51,1.51,0,0,0,.36.54,1.68,1.68,0,0,0,.54.37,1.73,1.73,0,0,0,1.29,0,1.66,1.66,0,0,0,.53-.38l9.35-9.34a1.61,1.61,0,0,0,.48-1.16,1.64,1.64,0,0,0-.48-1.16Z"/><path class="cls-4" d="M812.13,407.84a1.69,1.69,0,0,0-1.16-.48,1.67,1.67,0,0,0-1.16.48l-9.35,9.35a1.64,1.64,0,0,0-.48,1.16,1.61,1.61,0,0,0,.48,1.16l9.35,9.35a1.64,1.64,0,0,0,2.76-1.17,1.66,1.66,0,0,0-.44-1.15l-8.19-8.18,8.19-8.2a1.61,1.61,0,0,0,.48-1.16,1.64,1.64,0,0,0-.48-1.16"/><path class="cls-2" d="M1278.12,425.82a83.19,83.19,0,1,1-83.18-83.18,83.19,83.19,0,0,1,83.18,83.18"/><circle class="cls-3" cx="1194.94" cy="425.82" r="83.18"/><path class="cls-4" d="M1175.54,395.75A14.57,14.57,0,1,1,1161,410.31a14.58,14.58,0,0,1,14.57-14.56m0,32.23a17.67,17.67,0,1,0-17.67-17.67A17.69,17.69,0,0,0,1175.54,428"/><path class="cls-4" d="M1175.54,421.15a7.5,7.5,0,0,0,7.17-5.22,1.55,1.55,0,1,0-3-.95,4.43,4.43,0,0,1-8.44,0,1.55,1.55,0,0,0-3,.95,7.49,7.49,0,0,0,7.17,5.22"/><path class="cls-4" d="M1204.07,449.05A30.69,30.69,0,0,0,1196,438l.8-1.4a24.42,24.42,0,0,1,44.39,12.45ZM1148.7,459.5a27.39,27.39,0,0,1,54.69,0Zm68.1-36.43a27.57,27.57,0,0,0-22.6,11.81l-.08.12-.61,1.07a30.46,30.46,0,0,0-48,25,1.54,1.54,0,0,0,1.54,1.55H1205a1.54,1.54,0,0,0,1.54-1.55,30.47,30.47,0,0,0-1.32-8.9h37.56a1.54,1.54,0,0,0,1.55-1.55,27.56,27.56,0,0,0-27.52-27.52"/><path class="cls-4" d="M1216.35,392.15a12.92,12.92,0,1,1-12.92,12.92,12.93,12.93,0,0,1,12.92-12.92m0,28.93a16,16,0,1,0-16-16,16,16,0,0,0,16,16"/><path class="cls-4" d="M1216.35,415a6,6,0,0,0,5.75-4.19,1.55,1.55,0,0,0-2.95-.95,2.95,2.95,0,0,1-5.61,0,1.55,1.55,0,1,0-3,.94,6,6,0,0,0,5.76,4.19"/><path class="cls-2" d="M1278.12,84.68A83.19,83.19,0,1,1,1194.94,1.5a83.18,83.18,0,0,1,83.18,83.18"/><circle class="cls-3" cx="1194.94" cy="84.68" r="83.18"/><path class="cls-4" d="M1186.87,57.31a1.54,1.54,0,0,0,.67-.29,1.45,1.45,0,0,0,.46-.55l5.14-10.28,5.14,10.28a1.61,1.61,0,0,0,.48.56,1.56,1.56,0,0,0,.68.28L1210.83,59l-8.22,8a1.55,1.55,0,0,0-.4.63,1.68,1.68,0,0,0,0,.74l1.94,11.25-10-5.19a1.55,1.55,0,0,0-1.41,0l-10.48,5.27,2-11.31a1.5,1.5,0,0,0-.08-.73,1.44,1.44,0,0,0-.41-.62l-8.22-8ZM1181,68.56l-1.9,11a2.79,2.79,0,0,0,.14,1.54,2.83,2.83,0,0,0,3.9,1.49l10.28-5.14,9.75,5.08a2.83,2.83,0,0,0,1.51.33,2.79,2.79,0,0,0,1.47-.53,2.75,2.75,0,0,0,1-1.22,2.8,2.8,0,0,0,.17-1.54l-1.9-11,8-7.83a2.68,2.68,0,0,0,.77-1.33,2.79,2.79,0,0,0-.91-2.82,2.84,2.84,0,0,0-1.41-.64l-11.15-1.62-5-10a2.78,2.78,0,0,0-2.53-1.55,2.79,2.79,0,0,0-1.48.42,2.83,2.83,0,0,0-1,1.13l-5,10L1174.48,56a2.82,2.82,0,0,0-1.42.63,2.73,2.73,0,0,0-.87,1.29,2.81,2.81,0,0,0,.73,2.89Z"/><path class="cls-4" d="M1233.79,94.8l-.14.14c-.18.2-17.16,19.65-26.73,23.79-5,2.19-13.35,3.74-20.16,3.74-7.2,0-17.82-2.64-17.92-2.66a2.29,2.29,0,0,0-.37,0V103.36c1.12-1.28,5.08-5.45,10.14-6.56,5.88-1.29,8.77,0,11.3,1.14a15.57,15.57,0,0,0,3.44,1.19,25.34,25.34,0,0,0,7.27-.37c3-.41,6.38-.89,8.22-.11a3.35,3.35,0,0,1,1,.89,3.52,3.52,0,0,1,.58,1.22,3.92,3.92,0,0,1-.83,3.5c-2.34,3.14-16.6,7.85-22.45,7.39a1.55,1.55,0,0,0-1.29,2.55,1.51,1.51,0,0,0,1.05.53h1c6.38,0,18.58-3.76,23-7.52l.11-.06,18.75-16.86a2.9,2.9,0,0,1,2.06-.72,3,3,0,0,1,1.13.3,3.14,3.14,0,0,1,1.7,2.86,3,3,0,0,1-1,2.07m-68.4,28.69H1155.1V96.76h10.29Zm70.93-34.95a6,6,0,0,0-4.11-2.06,6.06,6.06,0,0,0-2.32.31,5.83,5.83,0,0,0-2,1.2l-14.24,12.78a8.28,8.28,0,0,0-.16-.84,6.39,6.39,0,0,0-3.42-4.11c-2.64-1.11-6.31-.6-9.86-.08a24.63,24.63,0,0,1-6.3.39,12.43,12.43,0,0,1-2.7-1c-2.69-1.2-6.39-2.85-13.25-1.34a21.83,21.83,0,0,0-9.47,5.22V95.22a1.54,1.54,0,0,0-1.54-1.54h-13.37a1.54,1.54,0,0,0-1.54,1.54V125a1.55,1.55,0,0,0,.45,1.09,1.54,1.54,0,0,0,1.09.45h13.37a1.54,1.54,0,0,0,1.09-.45,1.55,1.55,0,0,0,.45-1.09V122.9c2.06.48,11.39,2.65,18.29,2.65,7.19,0,16-1.65,21.41-4,10-4.33,26.42-23,27.76-24.52a6.06,6.06,0,0,0,1.92-4.16,6.13,6.13,0,0,0-1.53-4.33"/><polyline class="cls-1" points="264.09 75.28 273.39 84.58 264.09 93.88"/><polyline class="cls-1" points="635.33 75.28 644.63 84.58 635.33 93.88"/><polyline class="cls-1" points="1004.77 75.28 1014.07 84.58 1004.77 93.88"/><polyline class="cls-1" points="1014.07 416.52 1004.77 425.82 1014.07 435.12"/><polyline class="cls-1" points="1394.58 251.14 1403.88 260.44 1413.18 251.14"/><polyline class="cls-1" points="642.83 416.52 633.53 425.82 642.83 435.12"/><polyline class="cls-1" points="273.39 416.52 264.09 425.82 273.39 435.12"/><path class="cls-2" d="M167.87,425.82a83.19,83.19,0,1,1-83.19-83.18,83.19,83.19,0,0,1,83.19,83.18"/><circle class="cls-3" cx="84.68" cy="425.82" r="83.18"/><path class="cls-4" d="M115.6,402H45.1V390h70.5ZM74.92,451.85H45.1V405.22h70.5v6a1.62,1.62,0,0,0,1.62,1.63,1.64,1.64,0,0,0,1.63-1.63V388.4a1.62,1.62,0,0,0-1.63-1.62H43.47a1.62,1.62,0,0,0-1.63,1.62v65.08a1.62,1.62,0,0,0,.48,1.15,1.6,1.6,0,0,0,1.15.48H74.92a1.6,1.6,0,0,0,1.15-.48,1.62,1.62,0,0,0,.48-1.15,1.64,1.64,0,0,0-1.63-1.63"/><path class="cls-4" d="M51.06,397.62h5.43A1.6,1.6,0,0,0,58.11,396a1.62,1.62,0,0,0-1.62-1.63H51.06A1.62,1.62,0,0,0,49.44,396a1.6,1.6,0,0,0,1.62,1.62"/><path class="cls-4" d="M63,397.62h5.43A1.6,1.6,0,0,0,70,396a1.62,1.62,0,0,0-1.62-1.63H63A1.62,1.62,0,0,0,61.37,396,1.6,1.6,0,0,0,63,397.62"/><path class="cls-4" d="M101.5,446.43a7.6,7.6,0,1,1,5.36-2.22,7.62,7.62,0,0,1-5.36,2.22m0-18.44a10.84,10.84,0,0,0-10,6.7,10.83,10.83,0,0,0,7.9,14.78A10.84,10.84,0,1,0,101.5,428"/><path class="cls-4" d="M124.27,440.55l-5.89.89a1.62,1.62,0,0,0-.83.4,1.53,1.53,0,0,0-.49.78,16.35,16.35,0,0,1-1.66,4,1.71,1.71,0,0,0-.22.91,1.62,1.62,0,0,0,.32.87l3.55,4.81-3.19,3.18L111,452.82a1.62,1.62,0,0,0-.87-.32,1.71,1.71,0,0,0-.91.22,16.55,16.55,0,0,1-4,1.64,1.63,1.63,0,0,0-.78.48,1.69,1.69,0,0,0-.4.84l-.9,5.93H98.7l-.9-5.93a1.69,1.69,0,0,0-.4-.84,1.63,1.63,0,0,0-.78-.48,16.55,16.55,0,0,1-4-1.64,1.71,1.71,0,0,0-.91-.22,1.62,1.62,0,0,0-.87.32l-4.83,3.55-3.19-3.18,3.56-4.81a1.62,1.62,0,0,0,.32-.87,1.71,1.71,0,0,0-.22-.91,16.75,16.75,0,0,1-1.66-4,1.53,1.53,0,0,0-.49-.78,1.62,1.62,0,0,0-.83-.4l-5.9-.89V436l5.86-.89A1.65,1.65,0,0,0,84.84,434a16.47,16.47,0,0,1,1.66-4,1.66,1.66,0,0,0-.1-1.78l-3.51-4.76,3.18-3.19,4.75,3.51a1.73,1.73,0,0,0,.88.31,1.64,1.64,0,0,0,.9-.21,16.53,16.53,0,0,1,4.05-1.69,1.69,1.69,0,0,0,.8-.48,1.62,1.62,0,0,0,.39-.85L98.7,415h4.51l.88,5.82a1.62,1.62,0,0,0,1.19,1.33,16.53,16.53,0,0,1,4,1.69,1.66,1.66,0,0,0,1.78-.1l4.75-3.5,3.19,3.18-3.52,4.76a1.57,1.57,0,0,0-.31.88,1.64,1.64,0,0,0,.21.9,16.47,16.47,0,0,1,1.66,4,1.56,1.56,0,0,0,.49.79,1.6,1.6,0,0,0,.85.4l5.86.89Zm1.87-7.52-6.21-.94a18.34,18.34,0,0,0-1.17-2.83l3.73-5.06a1.62,1.62,0,0,0,.34-1.12,1.61,1.61,0,0,0-.5-1.05l-5.16-5.17a1.62,1.62,0,0,0-1-.49,1.67,1.67,0,0,0-1.12.33l-5,3.72a20.51,20.51,0,0,0-2.81-1.11l-.94-6.18a1.62,1.62,0,0,0-.53-1,1.64,1.64,0,0,0-1.07-.41H97.3a1.59,1.59,0,0,0-1.06.4,1.67,1.67,0,0,0-.55,1l-.93,6.2a19.71,19.71,0,0,0-2.85,1.19l-5-3.72a1.62,1.62,0,0,0-1.12-.34,1.61,1.61,0,0,0-1,.5l-5.17,5.16a1.65,1.65,0,0,0-.16,2.17l3.73,5.07A20.62,20.62,0,0,0,82,432.09l-6.22.94a1.66,1.66,0,0,0-1,.56,1.6,1.6,0,0,0-.39,1.05V442a1.59,1.59,0,0,0,.4,1.06,1.67,1.67,0,0,0,1,.55l6.26.94a19.21,19.21,0,0,0,1.16,2.78l-3.76,5.09a1.61,1.61,0,0,0,.16,2.17l5.16,5.16a1.63,1.63,0,0,0,1,.5,1.67,1.67,0,0,0,1.12-.33L92,456.09a19.92,19.92,0,0,0,2.75,1.14l1,6.29a1.56,1.56,0,0,0,.54,1,1.58,1.58,0,0,0,1,.4h7.31a1.59,1.59,0,0,0,1.06-.4,1.6,1.6,0,0,0,.54-1l1-6.29a19,19,0,0,0,2.75-1.14l5.12,3.77a1.61,1.61,0,0,0,2.17-.16l5.17-5.16a1.62,1.62,0,0,0,.49-1.05,1.65,1.65,0,0,0-.33-1.12l-3.77-5.1a18.19,18.19,0,0,0,1.16-2.73l6.26-.94a1.66,1.66,0,0,0,1.34-1.61v-7.31a1.59,1.59,0,0,0-.4-1.06,1.67,1.67,0,0,0-1-.55"/><path class="cls-2" d="M537.63,425.82a83.19,83.19,0,1,1-83.19-83.18,83.2,83.2,0,0,1,83.19,83.18"/><circle class="cls-3" cx="454.44" cy="425.82" r="83.18"/><path class="cls-4" d="M447.06,395.27a1.54,1.54,0,0,0,.72-.27,1.46,1.46,0,0,0,.5-.55l5.86-11.05L460,394.45a1.55,1.55,0,0,0,.5.55,1.58,1.58,0,0,0,.72.27L474.32,397l-9.46,8.6a1.47,1.47,0,0,0-.41.61,1.37,1.37,0,0,0-.06.72l2.24,12.14-11.71-5.74a1.78,1.78,0,0,0-1.52,0l-11.72,5.73L443.92,407a1.45,1.45,0,0,0-.47-1.33L434,397.05Zm-6.48,12-2.65,14.36a1.43,1.43,0,0,0,.1.84,1.54,1.54,0,0,0,.56.66,1.71,1.71,0,0,0,.86.27,1.68,1.68,0,0,0,.88-.2l13.83-6.77L468,423.18a1.65,1.65,0,0,0,.87.18,1.63,1.63,0,0,0,.84-.29,1.46,1.46,0,0,0,.65-1.47l-2.65-14.36L479,397.07a1.48,1.48,0,0,0,.45-.72,1.43,1.43,0,0,0,0-.82,1.56,1.56,0,0,0-.5-.69,1.68,1.68,0,0,0-.81-.34l-15.52-2.09-6.93-13.05a1.56,1.56,0,0,0-.6-.62,1.77,1.77,0,0,0-1.71,0,1.56,1.56,0,0,0-.6.62l-7,13.05-15.47,2.09a1.68,1.68,0,0,0-.81.34,1.56,1.56,0,0,0-.5.69,1.43,1.43,0,0,0,0,.82,1.48,1.48,0,0,0,.45.72Z"/><path class="cls-4" d="M489,449.31l-43.22,20V442.46L489,422.37Zm-69.15-26,22.69,18.89v26.21L419.8,449.56Zm72.39-3.38a1.93,1.93,0,0,0,0-.34v-.07a1.89,1.89,0,0,0-.11-.25l-.06-.09a1,1,0,0,0-.16-.2l-.06-.07a1.48,1.48,0,0,0-.29-.22l-13.8-7.95a1.75,1.75,0,0,0-1.23-.19,1.62,1.62,0,0,0-1,.67,1.41,1.41,0,0,0-.21,1.14,1.54,1.54,0,0,0,.72.94l11.25,6.49-42.86,19.93-23.29-19.4,11.12-4.91a1.6,1.6,0,0,0,.83-.85,1.42,1.42,0,0,0-.07-1.16,1.54,1.54,0,0,0-.92-.77,1.77,1.77,0,0,0-1.24.06l-13.31,5.89a1.55,1.55,0,0,0-.32.2l-.08.06a1.26,1.26,0,0,0-.22.24v.06a1.38,1.38,0,0,0-.18.34v.08a1.71,1.71,0,0,0,0,.32v30.38a1.43,1.43,0,0,0,.15.64,1.64,1.64,0,0,0,.43.52l25.92,21.39a1.67,1.67,0,0,0,.44.23h.06a1.75,1.75,0,0,0,.51.08h.42l.25-.08,46.45-21.39a1.52,1.52,0,0,0,.65-.58,1.43,1.43,0,0,0,.22-.81Z"/><text class="cls-5" transform="translate(5.18 197.24)">1. <tspan class="cls-6" x="20.56" y="0">R</tspan><tspan x="32.64" y="0">éunion initiale</tspan></text><text class="cls-5" transform="translate(29.02 539.74)">8. Assis<tspan class="cls-7" x="64.12" y="0">t</tspan><tspan class="cls-8" x="71.54" y="0">an</tspan><tspan class="cls-9" x="93.52" y="0">c</tspan><tspan x="102.32" y="0">e</tspan></text><text class="cls-5" transform="translate(353.34 197.24)">2. Description du p<tspan class="cls-10" x="164.76" y="0">o</tspan><tspan x="175.78" y="0">s</tspan><tspan class="cls-11" x="184.64" y="0">t</tspan><tspan x="192.1" y="0">e</tspan></text><text class="cls-5" transform="translate(387.52 539.74)">7. Déploiement</text><text class="cls-5" transform="translate(741.64 197.24)">3. <tspan class="cls-6" x="20.56" y="0">R</tspan><tspan x="32.64" y="0">eche</tspan><tspan class="cls-12" x="74.12" y="0">r</tspan><tspan class="cls-13" x="81.9" y="0">che </tspan><tspan class="cls-14" x="117.02" y="0">r</tspan><tspan x="124.4" y="0">apide</tspan></text><text class="cls-5" transform="translate(748.24 539.74)">6. D<tspan class="cls-15" x="33.26" y="0">é</tspan><tspan class="cls-16" x="43.52" y="0">v</tspan><tspan class="cls-13" x="53.84" y="0">eloppement</tspan></text><text class="cls-5" transform="translate(1102.14 197.24)">4. Ent<tspan class="cls-17" x="50.62" y="0">r</tspan><tspan class="cls-18" x="58.38" y="0">e</tspan><tspan x="68.4" y="0">tien </tspan><tspan class="cls-6" x="107.38" y="0">t</tspan><tspan x="114.86" y="0">echnique</tspan></text><text class="cls-5" transform="translate(1082.58 539.74)">5. Comp<tspan class="cls-10" x="71.9" y="0">o</tspan><tspan class="cls-13" x="82.92" y="0">sition de l&apos;équipe</tspan></text></g></g></svg>