<svg xmlns="http://www.w3.org/2000/svg" viewBox="0 0 260.29 64.91"><defs><style>.cls-1{fill:#1a171b;}.cls-2{fill:#fff;}</style></defs><g id="Calque_2" data-name="Calque 2"><g id="Calque_1-2" data-name="Calque 1"><circle class="cls-1" cx="32.46" cy="32.46" r="32.46"/><path class="cls-2" d="M46.64,12a11.6,11.6,0,0,0-8.31,4.45,27.85,27.85,0,0,0-5.09,9.36c-2-1.67-3.6-3.83-6.87-4.77a8.4,8.4,0,0,0-7.6,1.39,6.82,6.82,0,0,0-2.33,3.39c-1,3.18,1,6,1.94,7l2,2.14a3,3,0,0,1,.92,3.08,3.68,3.68,0,0,1-4.68,2.16c-.94-.29-2.3-1-2-2a8.07,8.07,0,0,1,.57-1,4.78,4.78,0,0,0,.25-.66A2.64,2.64,0,0,0,14,33.24a2.22,2.22,0,0,0-3,1.54c-.56,1.84.32,5.17,5,6.62,5.51,1.7,10.18-1.31,10.84-5.22.42-2.46-.69-4.28-2.72-6.63l-1.65-1.82a3,3,0,0,1-.31-4c.87-1.11,2.12-1.58,4.16-1,3,.81,4.31,2.88,6.52,4.55-.91,3-1.51,6-2.05,8.71l-.33,2c-1.58,8.3-2.79,12.87-5.94,15.48a5.07,5.07,0,0,1-2.9,1.18.83.83,0,0,1-.95-.69c0-.5.4-.73.68-1a1.74,1.74,0,0,0,1-1.82,2.76,2.76,0,0,0-3-2.63A3.44,3.44,0,0,0,16.16,52c.08,2.29,2.22,4,5.45,3.9,1.72,0,5.57-.76,9.36-5.27,4.42-5.17,5.65-11.09,6.58-15.43l1-5.73a17.52,17.52,0,0,0,1.86.13c5.5.12,8.25-2.73,8.29-4.8a2.24,2.24,0,0,0-2-2.46,2.3,2.3,0,0,0-2.18,1.77c-.25,1.15,1.75,2.2.19,3.21-1.11.72-3.1,1.22-5.91.81l.51-2.82c1-5.34,2.33-11.92,7.2-12.08.35,0,1.65,0,1.68.88,0,.28-.06.36-.4,1a2.33,2.33,0,0,0-.45,1.45A2.27,2.27,0,0,0,50,18.78a2.8,2.8,0,0,0,2.56-3c-.08-2.36-2.57-3.85-5.87-3.74Z"/><path class="cls-1" d="M196.78,23.32c7.48,0,12.5,5.41,12.5,12.89,0,7-5.12,12.89-12.5,12.89s-12.55-5.84-12.55-12.89C184.23,28.73,189.25,23.32,196.78,23.32Zm0,22.11c5.31,0,7.67-4.82,7.67-9.22,0-4.68-2.84-9.22-7.67-9.22s-7.72,4.54-7.72,9.22C189.06,40.6,191.42,45.43,196.78,45.43ZM183.61,25.62V23.9h-6.52V21.56c0-3.33.48-5.84,4.39-5.84h.24a2,2,0,0,0,2.05-1.89l.08-1.49a19,19,0,0,0-3-.29c-6.71,0-8.25,3.91-8.25,9.9V23.9h-5.8v1.92a2.06,2.06,0,0,0,2,1.75h3.77v21h2.5a2.05,2.05,0,0,0,2-1.78V27.57h4.54a2,2,0,0,0,2-1.95ZM123.18,23.9h0a2.64,2.64,0,0,0-2.29,1.54l-6.24,18.82h-.1l-6.1-18.81a2.62,2.62,0,0,0-2.29-1.55h-3.19l8.35,23a13.65,13.65,0,0,1,.87,2.61c0,.48-1.35,6.08-5.41,6.08l-.3,0a1.91,1.91,0,0,0-2,1.78l-.12,1.57a15.19,15.19,0,0,0,3.09.34c6,0,7.77-5.46,9.46-10.19L126,23.9h-2.78Zm-28.85,5c-3.75-1.91-7.84-3.22-7.92-7.07,0-4.1,3.78-5.18,6.68-5.17h0a14.35,14.35,0,0,1,3.25.34s0,0,0,0a2,2,0,0,0,2-1.76l.09-1.49A24.16,24.16,0,0,0,92.9,13c-6.31,0-11,3.21-11,9.26,0,5.3,3.58,7.35,7.42,9.21s7.88,3.31,7.92,7.68c0,4.56-4.42,6.24-7.45,6.24a18.47,18.47,0,0,1-5.32-1c-1-.16-1.86.73-2,1.92l-.13,1.33a22.45,22.45,0,0,0,6.81,1.35h0c7.06-.06,12.55-2.87,12.58-10.19,0-5.64-3.61-8-7.43-10ZM163,48.52h0a2,2,0,0,0,2-1.61V32.74c0-5.36-2.26-9.42-8.54-9.42a8.77,8.77,0,0,0-7.62,4.78,7.28,7.28,0,0,0-7-4.78c-3.62,0-6.09,1.31-7.82,4.16h-.1V25.94a2.06,2.06,0,0,0-2-2h-2.2V48.52h2.47a2.06,2.06,0,0,0,2.06-2.06s0,0,0-.06V36.12c0-4.59,1.84-9.13,6.47-9.13,3.67,0,4.39,3.82,4.39,6.86V48.52h2.5a2.05,2.05,0,0,0,2-1.87V36.12c0-4.59,1.83-9.13,6.47-9.13,3.66,0,4.39,3.82,4.39,6.86V48.52Zm70.11,0h0a2,2,0,0,0,2-2V33.89c0-6.61-2.85-10.57-9.22-10.57-3.42,0-6.7,1.69-8.06,4.49h-.09V26h0a2,2,0,0,0-2.05-2.06h-2.34V48.52h2.5a2.06,2.06,0,0,0,2-1.9V37.13c0-6,2.32-10.14,7.48-10.14,4,.24,5.21,3,5.21,8.79V48.52ZM257.5,23.9h0a2.63,2.63,0,0,0-2.28,1.54l-6.25,18.82h-.1l-6.1-18.81a2.62,2.62,0,0,0-2.29-1.55h-3.19l8.35,23a13.65,13.65,0,0,1,.87,2.61c0,.48-1.35,6.08-5.41,6.08l-.3,0a1.91,1.91,0,0,0-2,1.78l-.12,1.57a15.28,15.28,0,0,0,3.09.34c6,0,7.77-5.46,9.46-10.19l9.08-25.15Z"/></g></g></svg>